<svg xmlns="http://www.w3.org/2000/svg" viewBox="0 0 217.39 68.23"><path d="M11.14,58.38V54.87l4.25-.39,1.3-1.12V15L15.6,14l-4.74-.36V10.08H30.3q10.31,0,15,3.48T50,24.6q0,7.59-5,11.79t-13.89,4.2c-.56,0-1.26,0-2.08-.05s-1.77-.09-2.84-.16v13l1.09,1.12,5.13.39v3.51ZM26.19,36.27l.24,0c1.08.08,1.87.11,2.36.11,3.73,0,6.53-1,8.42-2.88S40,28.73,40,24.91q0-5.16-2.6-7.91c-1.74-1.82-4.23-2.74-7.49-2.74H26.19Z"/><path d="M80,34.62h21v3.55l-4.18.35-1.13,1V56.31a56.8,56.8,0,0,1-8.26,2.21,42.75,42.75,0,0,1-7.88.74q-11.28,0-18.31-7t-7-18.32q0-11.17,7.19-17.91T80.47,9.27a47.59,47.59,0,0,1,7.4.6,59.48,59.48,0,0,1,7.82,1.79V23.89H90.42l-1.37-7.62L88,15a14.13,14.13,0,0,0-2.89-.87A16.2,16.2,0,0,0,82,13.8q-8.08,0-12.71,5.37T64.65,33.91q0,9.65,4.73,15.07t13.13,5.43c.37,0,.9,0,1.58,0l2.35-.16V39.5l-1.12-1L80,38.17Z"/><path d="M106.38,37.5h18.28v7.07H106.38Z"/><path d="M150.68,9.34h4.67v44l.77,1.12,6.79.32v3.58h-25V54.8l7.21-.46L146,53V17.64l-.63-.88L135.1,18.27V14.61Z"/><path d="M193.14,33q6.48.49,10,3.52a10,10,0,0,1,3.57,8A12.61,12.61,0,0,1,201.16,55q-5.59,4.16-14.48,4.15a19.12,19.12,0,0,1-10.43-2.62q-4.12-2.61-4.13-6.38a4.42,4.42,0,0,1,1.41-3.43,5.26,5.26,0,0,1,3.69-1.28,6.35,6.35,0,0,1,1.23.14,13.24,13.24,0,0,1,1.58.46l2.32,7.77a21.57,21.57,0,0,0,2.64.81,10.86,10.86,0,0,0,2.32.28,9.17,9.17,0,0,0,6.87-2.9,9.9,9.9,0,0,0,2.8-7.12,8.21,8.21,0,0,0-2.73-6.44A10.47,10.47,0,0,0,187,36.06c-.66,0-1.36,0-2.11.09s-1.54.14-2.36.26V31.24c.26,0,.54,0,.83.05s.71,0,1.25,0q5,0,7.8-2.34a8.05,8.05,0,0,0,2.78-6.52,8.26,8.26,0,0,0-2.48-6.17,8.87,8.87,0,0,0-6.45-2.4,9,9,0,0,0-1.94.22,14.89,14.89,0,0,0-2.07.65v8.44a6.34,6.34,0,0,1-1.76.76,8.68,8.68,0,0,1-2.07.23,5.19,5.19,0,0,1-3.73-1.39,4.75,4.75,0,0,1-1.44-3.57q0-4.15,4.57-7a21.05,21.05,0,0,1,11.46-2.9q7,0,11.32,3.39A10.64,10.64,0,0,1,205,21.43a9.74,9.74,0,0,1-3,7.26Q199,31.63,193.14,33Z"/><path class="a" d="M212.21,68.23H5.18A5.18,5.18,0,0,1,0,63.05V5.18A5.18,5.18,0,0,1,5.18,0h207a5.19,5.19,0,0,1,5.18,5.18V63.05A5.19,5.19,0,0,1,212.21,68.23ZM5.18,3A2.19,2.19,0,0,0,3,5.18V63.05a2.19,2.19,0,0,0,2.18,2.18h207a2.19,2.19,0,0,0,2.18-2.18V5.18A2.19,2.19,0,0,0,212.21,3Z"/></svg>
