<svg xmlns="http://www.w3.org/2000/svg" viewBox="0 0 225.11 68.23"><path d="M10.45,58.38V54.94l4.25-.6L16,53V15l-1-1-4.54-.36V10.08H26.94V12L49,46.22V15.39L47.68,14l-4.39-.43V10.08H59.7v3.51L55.45,14l-1.23,1.37v43h-8L21.24,19.71V53l1.16,1.3,4.47.6v3.44Z"/><path d="M104.21,56.66a43.13,43.13,0,0,1-7.4,2,44.77,44.77,0,0,1-7.72.65,30.25,30.25,0,0,1-7.2-.82,21.38,21.38,0,0,1-6-2.45,23.55,23.55,0,0,1-8.79-9.09,25.74,25.74,0,0,1-3.16-12.63A27,27,0,0,1,65.8,24a23.26,23.26,0,0,1,5.58-8.2,22.28,22.28,0,0,1,8-5A29.46,29.46,0,0,1,89.52,9.2a40.27,40.27,0,0,1,7.29.67,46,46,0,0,1,7.4,2v12H98.94L97.5,16.2l-1-1.24a19.37,19.37,0,0,0-2.9-.8,14.19,14.19,0,0,0-2.79-.28,14.54,14.54,0,0,0-11.94,5.46q-4.41,5.47-4.41,14.86,0,9.63,4.61,15.08t12.69,5.45a12.51,12.51,0,0,0,2-.18c.74-.12,1.53-.28,2.38-.49L97.22,53l1.72-8.68h5.27Z"/><path d="M111.14,37.5h18.28v7.07H111.14Z"/><path d="M155.44,9.34h4.67v44l.77,1.12,6.79.32v3.58h-25V54.8l7.21-.46.84-1.3V17.64l-.63-.88-10.23,1.51V14.61Z"/><path d="M179.34,10.08h34.49v4.67L190.49,58.81v2h-7.7L206,18.06H185.18l-1.09,6.71h-4.75Z"/><path d="M219.94,68.23H5.18A5.18,5.18,0,0,1,0,63.05V5.18A5.18,5.18,0,0,1,5.18,0H219.94a5.18,5.18,0,0,1,5.17,5.18V63.05A5.18,5.18,0,0,1,219.94,68.23ZM5.18,3A2.19,2.19,0,0,0,3,5.18V63.05a2.19,2.19,0,0,0,2.18,2.18H219.94a2.18,2.18,0,0,0,2.17-2.18V5.18A2.18,2.18,0,0,0,219.94,3Z"/></svg>
