<svg xmlns="http://www.w3.org/2000/svg" viewBox="0 0 111 68.23"><path d="M10.73,58.38V54.87L15,54.48l1.3-1.12V15L15.2,14l-4.75-.36V10.08H29.89q10.3,0,15,3.48t4.67,11q0,7.59-4.95,11.79T30.7,40.59c-.56,0-1.25,0-2.07-.05s-1.77-.09-2.85-.16v13l1.09,1.12,5.13.39v3.51ZM25.78,36.27l.24,0c1.08.08,1.87.11,2.36.11,3.73,0,6.53-1,8.42-2.88s2.83-4.8,2.83-8.62q0-5.16-2.6-7.91c-1.74-1.82-4.23-2.74-7.49-2.74H25.78Z"/><path d="M79.57,34.62h21v3.55l-4.18.35-1.13,1V56.31A56.46,56.46,0,0,1,87,58.52a42.73,42.73,0,0,1-7.87.74q-11.3,0-18.32-7t-7-18.32Q53.8,22.74,61,16T80.06,9.27a47.59,47.59,0,0,1,7.4.6,59.48,59.48,0,0,1,7.82,1.79V23.89H90l-1.37-7.62L87.55,15a14.23,14.23,0,0,0-2.88-.87,16.39,16.39,0,0,0-3.1-.29q-8.08,0-12.71,5.37T64.24,33.91Q64.24,43.56,69,49T82.1,54.41c.37,0,.9,0,1.58,0L86,54.2V39.5l-1.13-1-5.34-.35Z"/><path class="a" d="M105.83,68.23H5.18A5.18,5.18,0,0,1,0,63.05V5.18A5.18,5.18,0,0,1,5.18,0H105.83A5.18,5.18,0,0,1,111,5.18V63.05A5.18,5.18,0,0,1,105.83,68.23ZM5.18,3A2.19,2.19,0,0,0,3,5.18V63.05a2.19,2.19,0,0,0,2.18,2.18H105.83A2.18,2.18,0,0,0,108,63.05V5.18A2.18,2.18,0,0,0,105.83,3Z"/></svg>
