<svg xmlns="http://www.w3.org/2000/svg" viewBox="0 0 346.05 68.23"><path d="M11.05,10.08H31.72v3.51L27.26,14l-1,1V40.17q0,7.21,2.74,10.3t9,3.1q5.76,0,8.35-3.29T48.91,39.5V15.25L47.82,14l-4.6-.43V10.08H59.56v3.51L55.17,14l-1,1.23v25q0,10-4.5,14.52t-14.52,4.5A25.41,25.41,0,0,1,26,57.73a14.31,14.31,0,0,1-6.2-4.37,13.87,13.87,0,0,1-2.45-5.15,36.69,36.69,0,0,1-.72-8.32V15l-1-1-4.53-.36Z"/><path d="M62.24,58.38V54.94l4.25-.6,1.3-1.3V15l-1-1-4.53-.36V10.08H78.72V12l22,34.21V15.39L99.47,14l-4.4-.43V10.08h16.42v3.51l-4.25.43L106,15.39v43H98L73,19.71V53l1.16,1.3,4.46.6v3.44Z"/><path d="M114.94,10.08h21.9q8.29,0,12.6,3.13t4.31,9.17a10.9,10.9,0,0,1-3.13,8.07q-3.13,3.12-9.25,4.24a16.73,16.73,0,0,1,4.52,1.7,9.71,9.71,0,0,1,3,2.76,27,27,0,0,1,3,7.17c.5,1.58.88,2.74,1.16,3.49A7.64,7.64,0,0,0,156,53.76a11,11,0,0,0,5.6,1.11h.92v3.44c-1.34.19-2.61.33-3.82.42s-2.34.15-3.39.15a14.8,14.8,0,0,1-4.17-.58,10.31,10.31,0,0,1-3.32-1.64q-3.27-2.53-5.13-8.33c-.17-.54-.29-1-.39-1.27q-2-6.15-4.39-8c-1.57-1.25-3.91-1.88-7-1.88H129.7V53.36l1.16,1.12,4.4.39v3.51H114.94V54.87l4.25-.39,1.16-1.12V15l-1.16-1-4.25-.36Zm14.76,4.11,0,18.77c.3,0,.63,0,1,.06l1.56,0q5.83,0,8.62-2.36t2.77-7.28q0-4.5-2.74-6.85c-1.83-1.57-4.46-2.36-7.91-2.36Z"/><path d="M180.82,9.55h7.56l16.56,44.58,4.25.74v3.51H189.75V54.87l4.53-.46.53-.91-4.32-12.24H174.77l-4.32,12.17.74.91,4.53.53v3.51h-15.5V54.87l4.32-.67Zm1.58,9.88-6.26,17.79h12.69Z"/><path d="M201.14,10.08h41.52V22.8h-5l-1.23-7.69-1.05-.92h-8.65V53.36L228,54.48l4.67.39v3.51H211.12V54.87l4.71-.39,1.2-1.12V14.19h-8.61l-1.09.92L206.1,22.8h-5Z"/><path d="M245.47,58.38V54.87l4.39-.39L251,53.36V15l-1.16-1-4.39-.36V10.08h36.32V21.36h-5L275.56,15l-.77-.95H260.38V31.24h9.38l1-1,.74-5.17h4.25v16.7h-4.25l-.74-5.2-1-1h-9.38v18.7h16.8l.84-1.16,1.17-7.63h4.95v12.9Z"/><path d="M309.42,10.08q12.34,0,19.14,6.33t6.8,17.86a27,27,0,0,1-2.23,11.26,21.5,21.5,0,0,1-6.62,8.32,20,20,0,0,1-7.09,3.44,38.77,38.77,0,0,1-10,1.09h-21V54.87l4.39-.39L294,53.36V15.14L292.79,14l-4.39-.35V10.08Zm-6,4V54.34h4.19q8.58,0,12.79-5t4.22-15.14q0-10.14-4.22-15.12t-12.79-5Z"/><path class="a" d="M340.87,68.23H5.18A5.18,5.18,0,0,1,0,63.05V5.18A5.18,5.18,0,0,1,5.18,0H340.87a5.18,5.18,0,0,1,5.18,5.18V63.05A5.18,5.18,0,0,1,340.87,68.23ZM5.18,3A2.19,2.19,0,0,0,3,5.18V63.05a2.19,2.19,0,0,0,2.18,2.18H340.87a2.19,2.19,0,0,0,2.18-2.18V5.18A2.19,2.19,0,0,0,340.87,3Z"/></svg>
