<svg xmlns="http://www.w3.org/2000/svg" viewBox="0 0 70.41 68.23"><path d="M36.93,34.62H58v3.55l-4.18.35-1.12,1V56.31a56.58,56.58,0,0,1-8.27,2.21,42.65,42.65,0,0,1-7.87.74q-11.28,0-18.32-7t-7-18.32q0-11.17,7.19-17.91T37.42,9.27a47.59,47.59,0,0,1,7.4.6,59.62,59.62,0,0,1,7.83,1.79V23.89H47.37L46,16.27,44.91,15A14.23,14.23,0,0,0,42,14.09a16.36,16.36,0,0,0-3.09-.29q-8.1,0-12.71,5.37T21.6,33.91q0,9.65,4.73,15.07t13.13,5.43c.38,0,.9,0,1.58,0l2.36-.16V39.5l-1.13-1-5.34-.35Z"/><path class="a" d="M65.23,68.23h-60A5.18,5.18,0,0,1,0,63.05V5.18A5.18,5.18,0,0,1,5.18,0H65.23a5.19,5.19,0,0,1,5.18,5.18V63.05A5.19,5.19,0,0,1,65.23,68.23ZM5.18,3A2.19,2.19,0,0,0,3,5.18V63.05a2.19,2.19,0,0,0,2.18,2.18H65.23a2.19,2.19,0,0,0,2.18-2.18V5.18A2.19,2.19,0,0,0,65.23,3Z"/></svg>
