<svg xmlns="http://www.w3.org/2000/svg" viewBox="0 0 70.41 68.23"><path d="M11.9,10.08H33.8q8.3,0,12.61,3.13t4.3,9.17a10.86,10.86,0,0,1-3.13,8.07q-3.12,3.12-9.24,4.24a16.66,16.66,0,0,1,4.51,1.7,9.64,9.64,0,0,1,3,2.76,27.67,27.67,0,0,1,3,7.17c.49,1.58.88,2.74,1.16,3.49A7.63,7.63,0,0,0,53,53.76a11,11,0,0,0,5.61,1.11h.91v3.44c-1.33.19-2.61.33-3.81.42s-2.34.15-3.4.15a14.78,14.78,0,0,1-4.16-.58,10.21,10.21,0,0,1-3.32-1.64q-3.27-2.53-5.14-8.33l-.38-1.27q-2-6.15-4.4-8t-7-1.88H26.67V53.36l1.16,1.12,4.39.39v3.51H11.9V54.87l4.25-.39,1.16-1.12V15l-1.16-1-4.25-.36Zm14.77,4.11L26.7,33c.31,0,.64,0,1,.06l1.57,0q5.83,0,8.61-2.36t2.78-7.28a8.55,8.55,0,0,0-2.74-6.85Q35.18,14.2,30,14.19Z"/><path class="a" d="M65.23,68.23h-60A5.18,5.18,0,0,1,0,63.05V5.18A5.18,5.18,0,0,1,5.18,0H65.23a5.19,5.19,0,0,1,5.18,5.18V63.05A5.19,5.19,0,0,1,65.23,68.23ZM5.18,3A2.19,2.19,0,0,0,3,5.18V63.05a2.19,2.19,0,0,0,2.18,2.18H65.23a2.19,2.19,0,0,0,2.18-2.18V5.18A2.19,2.19,0,0,0,65.23,3Z"/></svg>
