<svg xmlns="http://www.w3.org/2000/svg" viewBox="0 0 239.63 68.23"><path d="M11.27,10.08H52.79V22.8h-5L46.6,15.11l-1.05-.92H36.9V53.36l1.23,1.12,4.67.39v3.51H21.25V54.87L26,54.48l1.2-1.12V14.19H18.55l-1.09.92L16.23,22.8h-5Z"/><path d="M52,10.08h19.8v3.51L67.62,14,66.85,15l12,32.83L90.4,15,89.6,14l-4.33-.36V10.08h15.79v3.51l-4.68.95-16,43.84H73.11L56.76,14.47,52,13.59Z"/><path d="M95.22,37.5H113.5v7.07H95.22Z"/><path d="M117.9,58.38V54.87l4.6-.53,1-1.3V14.89l-.88-.94-4.74-.43V10.08h18.88v2L148,45.13l11.18-33V10.08h19.05v3.44l-4.88.43-.78,1v38.4l.78,1.12,4.88.39v3.51H158.29V54.87l4.47-.39.73-1.12V14.68l-15,43.7h-5.21L128.69,15V53l1.09,1.3,4.46.53v3.51Z"/><path d="M199.46,9.55H207l16.56,44.58,4.25.74v3.51H208.39V54.87l4.53-.46.53-.91-4.32-12.24H193.41l-4.32,12.17.74.91,4.53.53v3.51h-15.5V54.87l4.32-.67ZM201,19.43l-6.26,17.79h12.69Z"/><path class="a" d="M234.45,68.23H5.18A5.18,5.18,0,0,1,0,63.05V5.18A5.18,5.18,0,0,1,5.18,0H234.45a5.18,5.18,0,0,1,5.17,5.18V63.05A5.18,5.18,0,0,1,234.45,68.23ZM5.18,3A2.19,2.19,0,0,0,3,5.18V63.05a2.19,2.19,0,0,0,2.18,2.18H234.45a2.18,2.18,0,0,0,2.17-2.18V5.18A2.18,2.18,0,0,0,234.45,3Z"/></svg>
