<svg xmlns="http://www.w3.org/2000/svg" viewBox="0 0 120.42 68.23"><path d="M10.21,58.38V54.94l4.25-.6,1.3-1.3V15l-1-1-4.53-.36V10.08H26.69V12L48.74,46.22V15.39L47.44,14,43,13.59V10.08H59.46v3.51L55.21,14,54,15.39v43h-8L21,19.71V53l1.16,1.3,4.46.6v3.44Z"/><path d="M62.9,10.08H84.81q8.3,0,12.6,3.13t4.31,9.17a10.9,10.9,0,0,1-3.13,8.07q-3.14,3.12-9.25,4.24a16.73,16.73,0,0,1,4.52,1.7,9.71,9.71,0,0,1,3,2.76,27,27,0,0,1,3,7.17c.5,1.58.88,2.74,1.16,3.49a7.68,7.68,0,0,0,2.9,3.95,11,11,0,0,0,5.61,1.11h.92v3.44c-1.34.19-2.61.33-3.82.42s-2.34.15-3.39.15a14.8,14.8,0,0,1-4.17-.58,10.21,10.21,0,0,1-3.32-1.64q-3.27-2.53-5.13-8.33c-.17-.54-.3-1-.39-1.27q-2-6.15-4.39-8c-1.57-1.25-3.91-1.88-7-1.88H77.67V53.36l1.16,1.12,4.39.39v3.51H62.9V54.87l4.26-.39,1.16-1.12V15l-1.16-1-4.26-.36Zm14.77,4.11,0,18.77c.3,0,.63,0,1,.06l1.56,0q5.83,0,8.61-2.36c1.86-1.57,2.78-4,2.78-7.28q0-4.5-2.74-6.85C87.09,15,84.46,14.19,81,14.19Z"/><path class="a" d="M115.24,68.23H5.18A5.18,5.18,0,0,1,0,63.05V5.18A5.18,5.18,0,0,1,5.18,0H115.24a5.19,5.19,0,0,1,5.18,5.18V63.05A5.19,5.19,0,0,1,115.24,68.23ZM5.18,3A2.19,2.19,0,0,0,3,5.18V63.05a2.19,2.19,0,0,0,2.18,2.18H115.24a2.19,2.19,0,0,0,2.18-2.18V5.18A2.19,2.19,0,0,0,115.24,3Z"/></svg>
